# This file uses centimeters as units for non-parametric coordinates.

mtllib body.mtl
g default
v 1.068289 0.008557 -0.347108
v 0.908741 0.008557 -0.660239
v 0.660239 0.008557 -0.908740
v 0.347108 0.008557 -1.068289
v 0.000000 0.008557 -1.123265
v -0.347108 0.008557 -1.068288
v -0.660238 0.008557 -0.908740
v -0.908740 0.008557 -0.660238
v -1.068288 0.008557 -0.347108
v -1.123265 0.008557 0.000000
v -1.068288 0.008557 0.347108
v -0.908740 0.008557 0.660238
v -0.660238 0.008557 0.908740
v -0.347108 0.008557 1.068288
v -0.000000 0.008557 1.123265
v 0.347108 0.008557 1.068288
v 0.660238 0.008557 0.908740
v 0.908740 0.008557 0.660238
v 1.068288 0.008557 0.347108
v 1.123264 0.008557 0.000000
v 0.414951 2.371497 -0.134826
v 0.352979 2.371497 -0.256454
v 0.256454 2.371497 -0.352979
v 0.134826 2.371497 -0.414952
v -0.000000 2.371497 -0.436306
v -0.134826 2.371497 -0.414952
v -0.256454 2.371497 -0.352979
v -0.352979 2.371497 -0.256454
v -0.414951 2.371497 -0.134826
v -0.436305 2.371497 -0.000000
v -0.414951 2.371497 0.134826
v -0.352979 2.371497 0.256454
v -0.256454 2.371497 0.352979
v -0.134826 2.371497 0.414951
v -0.000000 2.371497 0.436305
v 0.134826 2.371497 0.414951
v 0.256454 2.371497 0.352979
v 0.352979 2.371497 0.256454
v 0.414951 2.371497 0.134826
v 0.436305 2.371497 -0.000000
v 0.000000 0.008557 0.000000
v -0.000000 2.371497 -0.000000
v 0.772576 2.130948 0.251025
v 0.657192 2.130948 0.477478
v 0.477478 2.130948 0.657192
v 0.251025 2.130948 0.772576
v -0.000000 2.130948 0.812334
v -0.251025 2.130948 0.772576
v -0.477478 2.130948 0.657192
v -0.657192 2.130948 0.477478
v -0.772576 2.130948 0.251025
v -0.812334 2.130948 -0.000000
v -0.772576 2.130948 -0.251025
v -0.657192 2.130948 -0.477478
v -0.477478 2.130948 -0.657193
v -0.251025 2.130948 -0.772576
v -0.000000 2.130948 -0.812335
v 0.251025 2.130948 -0.772576
v 0.477478 2.130948 -0.657193
v 0.657193 2.130948 -0.477478
v 0.772576 2.130948 -0.251025
v 0.812334 2.130948 -0.000000
vt 0.648603 0.107966
vt 0.626409 0.064408
vt 0.591842 0.029841
vt 0.548284 0.007647
vt 0.500000 -0.000000
vt 0.451716 0.007647
vt 0.408159 0.029841
vt 0.373591 0.064409
vt 0.351397 0.107966
vt 0.343750 0.156250
vt 0.351397 0.204534
vt 0.373591 0.248091
vt 0.408159 0.282659
vt 0.451716 0.304853
vt 0.500000 0.312500
vt 0.548284 0.304853
vt 0.591841 0.282659
vt 0.626409 0.248091
vt 0.648603 0.204534
vt 0.656250 0.156250
vt 0.375000 0.312500
vt 0.387500 0.312500
vt 0.400000 0.312500
vt 0.412500 0.312500
vt 0.425000 0.312500
vt 0.437500 0.312500
vt 0.450000 0.312500
vt 0.462500 0.312500
vt 0.475000 0.312500
vt 0.487500 0.312500
vt 0.500000 0.312500
vt 0.512500 0.312500
vt 0.525000 0.312500
vt 0.537500 0.312500
vt 0.550000 0.312500
vt 0.562500 0.312500
vt 0.575000 0.312500
vt 0.587500 0.312500
vt 0.600000 0.312500
vt 0.612500 0.312500
vt 0.625000 0.312500
vt 0.375000 0.688440
vt 0.387500 0.688440
vt 0.400000 0.688440
vt 0.412500 0.688440
vt 0.425000 0.688440
vt 0.437500 0.688440
vt 0.450000 0.688440
vt 0.462500 0.688440
vt 0.475000 0.688440
vt 0.487500 0.688440
vt 0.500000 0.688440
vt 0.512500 0.688440
vt 0.525000 0.688440
vt 0.537500 0.688440
vt 0.550000 0.688440
vt 0.562500 0.688440
vt 0.575000 0.688440
vt 0.587500 0.688440
vt 0.600000 0.688440
vt 0.612500 0.688440
vt 0.625000 0.688440
vt 0.648603 0.795466
vt 0.626409 0.751908
vt 0.591842 0.717341
vt 0.548284 0.695147
vt 0.500000 0.687500
vt 0.451716 0.695147
vt 0.408159 0.717341
vt 0.373591 0.751909
vt 0.351397 0.795466
vt 0.343750 0.843750
vt 0.351397 0.892034
vt 0.373591 0.935591
vt 0.408159 0.970159
vt 0.451716 0.992353
vt 0.500000 1.000000
vt 0.548284 0.992353
vt 0.591841 0.970159
vt 0.626409 0.935591
vt 0.648603 0.892034
vt 0.656250 0.843750
vt 0.500000 0.150000
vt 0.500000 0.837500
vt 0.600000 0.579748
vt 0.587500 0.579748
vt 0.575000 0.579748
vt 0.562500 0.579748
vt 0.550000 0.579748
vt 0.537500 0.579748
vt 0.525000 0.579748
vt 0.512500 0.579748
vt 0.500000 0.579748
vt 0.487500 0.579748
vt 0.475000 0.579748
vt 0.462500 0.579748
vt 0.450000 0.579748
vt 0.437500 0.579748
vt 0.425000 0.579748
vt 0.412500 0.579748
vt 0.400000 0.579748
vt 0.387500 0.579748
vt 0.625000 0.579748
vt 0.375000 0.579748
vt 0.612500 0.579748
vn 0.941012 0.144953 -0.305752
vn 0.800473 0.144953 -0.581577
vn 0.787698 0.228053 -0.572296
vn 0.925995 0.228053 -0.300873
vn 0.581577 0.144953 -0.800473
vn 0.572296 0.228053 -0.787698
vn 0.305753 0.144953 -0.941012
vn 0.300874 0.228053 -0.925995
vn -0.000000 0.144953 -0.989439
vn -0.000000 0.228053 -0.973649
vn -0.305753 0.144953 -0.941012
vn -0.300874 0.228053 -0.925995
vn -0.581578 0.144953 -0.800472
vn -0.572297 0.228053 -0.787698
vn -0.800473 0.144953 -0.581577
vn -0.787698 0.228053 -0.572296
vn -0.941012 0.144953 -0.305753
vn -0.925995 0.228053 -0.300874
vn -0.989439 0.144953 0.000000
vn -0.973649 0.228053 0.000000
vn -0.941012 0.144953 0.305753
vn -0.925995 0.228053 0.300874
vn -0.800472 0.144953 0.581578
vn -0.787698 0.228053 0.572297
vn -0.581577 0.144953 0.800473
vn -0.572296 0.228053 0.787698
vn -0.305754 0.144953 0.941012
vn -0.300874 0.228053 0.925995
vn 0.000000 0.144953 0.989439
vn 0.000000 0.228053 0.973649
vn 0.305754 0.144953 0.941012
vn 0.300874 0.228053 0.925995
vn 0.581577 0.144953 0.800473
vn 0.572296 0.228053 0.787698
vn 0.800473 0.144953 0.581577
vn 0.787698 0.228053 0.572296
vn 0.941012 0.144953 0.305753
vn 0.925995 0.228053 0.300874
vn 0.989439 0.144953 0.000001
vn 0.973649 0.228053 0.000001
vn 0.000000 -1.000000 -0.000000
vn 0.000000 -1.000000 0.000000
vn 0.000000 -1.000000 -0.000000
vn 0.000000 -1.000000 -0.000000
vn 0.000000 -1.000000 0.000000
vn 0.000000 -1.000000 0.000000
vn 0.000000 -1.000000 -0.000000
vn 0.000000 -1.000000 -0.000000
vn 0.000000 -1.000000 0.000000
vn 0.000000 -1.000000 0.000000
vn 0.000000 -1.000000 0.000000
vn 0.000000 -1.000000 -0.000000
vn 0.000000 -1.000000 -0.000000
vn 0.000000 -1.000000 0.000000
vn 0.000000 -1.000000 0.000000
vn 0.000000 -1.000000 0.000000
vn 0.000000 -1.000000 0.000000
vn 0.000000 -1.000000 0.000000
vn 0.000000 -1.000000 -0.000000
vn 0.000000 -1.000000 -0.000000
vn 0.000000 -1.000000 0.000000
vn 0.000000 1.000000 -0.000001
vn 0.000000 1.000000 0.000000
vn 0.000000 1.000000 -0.000000
vn 0.000000 1.000000 0.000001
vn 0.000000 1.000000 0.000000
vn 0.000000 1.000000 0.000000
vn 0.000000 1.000000 -0.000001
vn 0.000000 1.000000 0.000001
vn 0.000000 1.000000 0.000001
vn 0.000000 1.000000 -0.000001
vn 0.000000 1.000000 -0.000001
vn 0.000000 1.000000 0.000000
vn 0.000000 1.000000 -0.000001
vn 0.000000 1.000000 -0.000001
vn 0.000000 1.000000 -0.000001
vn 0.000000 1.000000 0.000000
vn 0.000000 1.000000 0.000000
vn 0.000000 1.000000 -0.000001
vn 0.000000 1.000000 0.000000
vn 0.000000 1.000000 -0.000001
vn 0.000000 1.000000 -0.000001
vn 0.512506 0.842382 0.166523
vn 0.435964 0.842382 0.316746
vn 0.316746 0.842382 0.435964
vn 0.166523 0.842382 0.512506
vn -0.000000 0.842382 0.538881
vn -0.166523 0.842382 0.512506
vn -0.316746 0.842382 0.435964
vn -0.435964 0.842382 0.316746
vn -0.512506 0.842382 0.166523
vn -0.538881 0.842382 0.000000
vn -0.512506 0.842382 -0.166523
vn -0.435964 0.842382 -0.316746
vn -0.316746 0.842382 -0.435964
vn -0.166523 0.842382 -0.512506
vn -0.000000 0.842382 -0.538881
vn 0.166523 0.842382 -0.512506
vn 0.316746 0.842382 -0.435964
vn 0.435964 0.842382 -0.316746
vn 0.512506 0.842382 -0.166523
vn 0.538881 0.842382 0.000000
s 1
g pCylinder1
usemtl initialShadingGroup
f 1/21/1 2/22/2 60/102/3 61/104/4
f 2/22/2 3/23/5 59/101/6 60/102/3
f 3/23/5 4/24/7 58/100/8 59/101/6
f 4/24/7 5/25/9 57/99/10 58/100/8
f 5/25/9 6/26/11 56/98/12 57/99/10
f 6/26/11 7/27/13 55/97/14 56/98/12
f 7/27/13 8/28/15 54/96/16 55/97/14
f 8/28/15 9/29/17 53/95/18 54/96/16
f 9/29/17 10/30/19 52/94/20 53/95/18
f 10/30/19 11/31/21 51/93/22 52/94/20
f 11/31/21 12/32/23 50/92/24 51/93/22
f 12/32/23 13/33/25 49/91/26 50/92/24
f 13/33/25 14/34/27 48/90/28 49/91/26
f 14/34/27 15/35/29 47/89/30 48/90/28
f 15/35/29 16/36/31 46/88/32 47/89/30
f 16/36/31 17/37/33 45/87/34 46/88/32
f 17/37/33 18/38/35 44/86/36 45/87/34
f 18/38/35 19/39/37 43/85/38 44/86/36
f 19/39/37 20/40/39 62/105/40 43/85/38
f 20/40/39 1/41/1 61/103/4 62/105/40
s 2
f 2/2/41 1/1/42 41/83/43
f 3/3/44 2/2/41 41/83/43
f 4/4/45 3/3/44 41/83/43
f 5/5/46 4/4/45 41/83/43
f 6/6/47 5/5/46 41/83/43
f 7/7/48 6/6/47 41/83/43
f 8/8/49 7/7/48 41/83/43
f 9/9/50 8/8/49 41/83/43
f 10/10/51 9/9/50 41/83/43
f 11/11/52 10/10/51 41/83/43
f 12/12/53 11/11/52 41/83/43
f 13/13/54 12/12/53 41/83/43
f 14/14/55 13/13/54 41/83/43
f 15/15/56 14/14/55 41/83/43
f 16/16/57 15/15/56 41/83/43
f 17/17/58 16/16/57 41/83/43
f 18/18/59 17/17/58 41/83/43
f 19/19/60 18/18/59 41/83/43
f 20/20/61 19/19/60 41/83/43
f 1/1/42 20/20/61 41/83/43
s 3
f 21/81/62 22/80/63 42/84/64
f 22/80/63 23/79/65 42/84/64
f 23/79/65 24/78/66 42/84/64
f 24/78/66 25/77/67 42/84/64
f 25/77/67 26/76/68 42/84/64
f 26/76/68 27/75/69 42/84/64
f 27/75/69 28/74/70 42/84/64
f 28/74/70 29/73/71 42/84/64
f 29/73/71 30/72/72 42/84/64
f 30/72/72 31/71/73 42/84/64
f 31/71/73 32/70/74 42/84/64
f 32/70/74 33/69/75 42/84/64
f 33/69/75 34/68/76 42/84/64
f 34/68/76 35/67/77 42/84/64
f 35/67/77 36/66/78 42/84/64
f 36/66/78 37/65/79 42/84/64
f 37/65/79 38/64/80 42/84/64
f 38/64/80 39/63/81 42/84/64
f 39/63/81 40/82/82 42/84/64
f 40/82/82 21/81/62 42/84/64
s 1
f 44/86/36 43/85/38 39/60/83 38/59/84
f 45/87/34 44/86/36 38/59/84 37/58/85
f 46/88/32 45/87/34 37/58/85 36/57/86
f 47/89/30 46/88/32 36/57/86 35/56/87
f 48/90/28 47/89/30 35/56/87 34/55/88
f 49/91/26 48/90/28 34/55/88 33/54/89
f 50/92/24 49/91/26 33/54/89 32/53/90
f 51/93/22 50/92/24 32/53/90 31/52/91
f 52/94/20 51/93/22 31/52/91 30/51/92
f 53/95/18 52/94/20 30/51/92 29/50/93
f 54/96/16 53/95/18 29/50/93 28/49/94
f 55/97/14 54/96/16 28/49/94 27/48/95
f 56/98/12 55/97/14 27/48/95 26/47/96
f 57/99/10 56/98/12 26/47/96 25/46/97
f 58/100/8 57/99/10 25/46/97 24/45/98
f 59/101/6 58/100/8 24/45/98 23/44/99
f 60/102/3 59/101/6 23/44/99 22/43/100
f 61/104/4 60/102/3 22/43/100 21/42/101
f 62/105/40 61/103/4 21/62/101 40/61/102
f 43/85/38 62/105/40 40/61/102 39/60/83
