# Blender v2.76 (sub 0) OBJ File: ''
# www.blender.org
mtllib crossbow.mtl
o crossbow:pCube1
v -1.740466 -0.019705 -0.087624
v -1.740466 -0.019705 0.078769
v -1.728286 0.039671 0.078769
v -1.728286 0.039671 -0.087624
v -0.446917 0.097007 -0.075886
v -0.446917 0.097007 0.079664
v -0.308073 0.093798 0.080141
v -0.308073 0.093798 -0.086322
v 0.973376 0.046575 -0.041363
v 0.973376 0.046575 0.032508
v 0.973376 -0.135850 0.032508
v 0.973376 -0.135850 -0.041363
v -0.308073 -0.113713 -0.086322
v -0.308073 -0.113713 0.080141
v -0.446917 -0.100093 0.079664
v -0.446917 -0.100093 -0.075886
v 0.913922 0.049869 -0.059408
v 0.913922 0.049869 0.050553
v 0.913922 -0.139846 -0.059408
v 0.913922 -0.139846 0.050553
v -1.507290 -0.013472 -0.048487
v -1.507290 -0.013472 0.039631
v -1.507290 0.054476 -0.048487
v -1.507290 0.054476 0.039631
v -1.060502 0.005940 -0.029712
v -1.060502 0.005940 0.031813
v -1.132662 0.003815 0.031384
v -1.132662 0.003815 -0.029392
v -1.060502 0.086970 -0.029712
v -1.132662 0.084905 -0.029392
v -1.132662 0.084905 0.031384
v -1.060502 0.086970 0.031813
v -0.757112 0.005610 -0.049974
v -0.757112 0.005610 0.045824
v -0.942099 0.009427 0.036292
v -0.942099 0.009427 -0.035272
v -0.757112 0.102105 -0.049974
v -0.942099 0.090360 -0.035272
v -0.942099 0.090360 0.036292
v -0.757112 0.102105 0.045824
v -0.532002 -0.078171 0.068702
v -0.532002 -0.078171 -0.069635
v -0.532002 0.100862 -0.069635
v -0.532002 0.100862 0.068702
v -0.613731 -0.033461 -0.061735
v -0.613731 -0.033461 0.058216
v -0.613731 0.104565 -0.061735
v -0.613731 0.104565 0.058216
v -0.107013 -0.096023 -0.081272
v -0.107013 -0.096023 0.076328
v -0.205721 -0.106065 0.079187
v -0.205721 -0.106065 -0.086827
v -0.107013 0.083294 -0.081272
v -0.205721 0.088204 -0.086827
v -0.205721 0.088204 0.079187
v -0.107013 0.083294 0.076328
v 0.061610 -0.072971 -0.058537
v 0.061610 -0.072971 0.059646
v 0.061610 0.076530 -0.058537
v 0.061610 0.076530 0.059646
v 0.294349 -0.052995 -0.056021
v 0.294349 -0.052995 0.059646
v 0.206685 -0.054300 0.057263
v 0.206685 -0.054300 -0.052991
v 0.294349 0.070276 -0.056021
v 0.206685 0.072343 -0.052991
v 0.206685 0.072309 0.057263
v 0.294349 0.070268 0.059646
v 0.492124 -0.059909 -0.067637
v 0.492124 -0.059909 0.061553
v 0.492124 0.064416 -0.067637
v 0.492124 0.064411 0.061553
v 0.713139 -0.086767 -0.050916
v 0.713139 -0.086767 0.042061
v 0.617656 -0.071026 0.070147
v 0.617656 -0.071026 -0.068647
v 0.713139 0.055066 -0.050916
v 0.617656 0.059098 -0.068647
v 0.617656 0.059103 0.070147
v 0.713139 0.055066 0.042061
v 0.812549 -0.107915 -0.049855
v 0.812549 -0.107915 0.040999
v 0.569968 0.028860 -0.846958
v 0.569968 -0.083433 -0.846958
v 0.534674 -0.068638 -0.866642
v 0.534674 0.030583 -0.866642
v 0.812549 0.052603 0.040999
v 0.812549 0.052603 -0.049855
v 0.534674 0.030583 0.857787
v 0.534674 -0.068638 0.857787
v 0.569968 -0.083433 0.838101
v 0.569968 0.028860 0.838101
v 0.864355 -0.129199 0.067290
v 0.864355 -0.129199 -0.076146
v 0.864355 0.051205 -0.076146
v 0.864355 0.051205 0.067290
v 0.111633 -0.066133 0.059170
v 0.111633 -0.066133 -0.057031
v 0.111633 0.074523 -0.057031
v 0.111633 0.074523 0.059170
v 0.556355 -0.064404 -0.075212
v 0.556355 -0.064404 0.072038
v 0.556355 0.061719 -0.075212
v 0.556355 0.061695 0.072038
v 0.848421 -0.092367 -0.474440
v 0.848421 0.037525 -0.474440
v 0.786509 -0.075254 -0.485548
v 0.786509 0.039518 -0.485548
v 0.777633 -0.075254 0.533471
v 0.777633 0.039518 0.533471
v 0.837648 -0.092367 0.521314
v 0.837648 0.037525 0.521314
vt 0.375000 0.000000
vt 0.625000 0.000000
vt 0.625000 0.250000
vt 0.375000 0.250000
vt 0.375000 0.500000
vt 0.625000 0.500000
vt 0.625000 0.750000
vt 0.375000 0.750000
vt 0.145973 0.250000
vt 0.145973 0.000000
vt 0.154651 0.000000
vt 0.154651 0.250000
vt 0.845349 0.250000
vt 0.845349 0.000000
vt 0.854027 0.000000
vt 0.854027 0.250000
vt 0.375000 0.368467
vt 0.625000 0.368467
vt 0.625000 0.381721
vt 0.375000 0.381721
vt 0.375000 0.868279
vt 0.625000 0.868279
vt 0.625000 0.881533
vt 0.375000 0.881533
vt 0.743467 0.250000
vt 0.743467 0.000000
vt 0.756721 0.000000
vt 0.756721 0.250000
vt 0.243279 0.000000
vt 0.256533 0.000000
vt 0.256533 0.250000
vt 0.243279 0.250000
vt 0.375000 0.487875
vt 0.625000 0.487875
vt 0.125000 0.000000
vt 0.137125 0.000000
vt 0.137125 0.250000
vt 0.125000 0.250000
vt 0.625000 0.762125
vt 0.375000 0.762125
vt 0.862875 0.250000
vt 0.862875 0.000000
vt 0.875000 0.000000
vt 0.875000 0.250000
vt 0.375000 0.978645
vt 0.625000 0.978645
vt 0.625000 1.000000
vt 0.375000 1.000000
vt 0.353645 0.250000
vt 0.353645 0.000000
vt 0.625000 0.271355
vt 0.375000 0.271355
vt 0.646355 0.000000
vt 0.646355 0.250000
vt 0.375000 0.937727
vt 0.625000 0.937727
vt 0.625000 0.944335
vt 0.375000 0.944335
vt 0.312727 0.250000
vt 0.312727 0.000000
vt 0.319335 0.000000
vt 0.319335 0.250000
vt 0.375000 0.305665
vt 0.625000 0.305665
vt 0.625000 0.312273
vt 0.375000 0.312273
vt 0.680665 0.250000
vt 0.680665 0.000000
vt 0.687273 0.000000
vt 0.687273 0.250000
vt 0.375000 0.909941
vt 0.625000 0.909941
vt 0.625000 0.926883
vt 0.375000 0.926883
vt 0.284941 0.250000
vt 0.284941 0.000000
vt 0.301883 0.000000
vt 0.301883 0.250000
vt 0.375000 0.323117
vt 0.625000 0.323117
vt 0.625000 0.340059
vt 0.375000 0.340059
vt 0.698117 0.250000
vt 0.698117 0.000000
vt 0.715059 0.000000
vt 0.715059 0.250000
vt 0.625000 0.889325
vt 0.375000 0.889325
vt 0.264325 0.000000
vt 0.264325 0.250000
vt 0.375000 0.360675
vt 0.625000 0.360675
vt 0.735675 0.250000
vt 0.735675 0.000000
vt 0.375000 0.896810
vt 0.625000 0.896810
vt 0.271810 0.250000
vt 0.271810 0.000000
vt 0.625000 0.353190
vt 0.375000 0.353190
vt 0.728190 0.000000
vt 0.728190 0.250000
vt 0.375000 0.851241
vt 0.625000 0.851241
vt 0.625000 0.859857
vt 0.375000 0.859857
vt 0.226241 0.250000
vt 0.226241 0.000000
vt 0.234857 0.000000
vt 0.234857 0.250000
vt 0.375000 0.390143
vt 0.625000 0.390143
vt 0.625000 0.398759
vt 0.375000 0.398759
vt 0.765143 0.250000
vt 0.765143 0.000000
vt 0.773759 0.000000
vt 0.773759 0.250000
vt 0.375000 0.836522
vt 0.625000 0.836522
vt 0.211522 0.250000
vt 0.211522 0.000000
vt 0.625000 0.413478
vt 0.375000 0.413478
vt 0.788478 0.000000
vt 0.788478 0.250000
vt 0.375000 0.816207
vt 0.625000 0.816207
vt 0.625000 0.823859
vt 0.375000 0.823859
vt 0.191207 0.250000
vt 0.191207 0.000000
vt 0.198859 0.000000
vt 0.198859 0.250000
vt 0.375000 0.426141
vt 0.625000 0.426141
vt 0.625000 0.433793
vt 0.375000 0.433793
vt 0.801141 0.250000
vt 0.801141 0.000000
vt 0.808793 0.000000
vt 0.808793 0.250000
vt 0.375000 0.798943
vt 0.625000 0.798943
vt 0.173943 0.250000
vt 0.173943 0.000000
vt 0.625000 0.451057
vt 0.375000 0.451057
vt 0.826057 0.000000
vt 0.826057 0.250000
vt 0.375000 0.779651
vt 0.625000 0.779651
vt 0.625000 0.787985
vt 0.375000 0.787985
vt 0.162985 0.000000
vt 0.162985 0.250000
vt 0.375000 0.462015
vt 0.625000 0.462015
vt 0.625000 0.470349
vt 0.375000 0.470349
vt 0.837015 0.250000
vt 0.837015 0.000000
vt 0.375000 0.770973
vt 0.625000 0.770973
vt 0.625000 0.479027
vt 0.375000 0.479027
vt 0.625000 0.766451
vt 0.375000 0.766451
vt 0.141451 0.000000
vt 0.141451 0.250000
vt 0.375000 0.483549
vt 0.625000 0.483549
vt 0.858549 0.250000
vt 0.858549 0.000000
vt 0.625000 0.832156
vt 0.375000 0.832156
vt 0.207156 0.000000
vt 0.207156 0.250000
vt 0.375000 0.417844
vt 0.625000 0.417844
vt 0.792844 0.250000
vt 0.792844 0.000000
vt 0.375000 0.793336
vt 0.625000 0.793336
vt 0.168336 0.250000
vt 0.168336 0.000000
vt 0.625000 0.456664
vt 0.375000 0.456664
vt 0.831664 0.000000
vt 0.831664 0.250000
vn -0.979600 0.200900 0.000000
vn 1.000000 0.000000 0.000000
vn 0.487100 0.000000 -0.873400
vn 0.487100 0.000000 0.873300
vn 0.030600 0.999500 -0.000000
vn 0.036700 0.999300 0.000000
vn 0.037100 0.999300 0.000000
vn -0.021200 -0.999800 -0.000000
vn -0.023500 -0.999700 0.000000
vn -0.150500 -0.988600 0.000000
vn -0.150200 -0.988700 0.000000
vn -0.050100 -0.000000 0.998700
vn -0.042400 0.000000 0.999100
vn 0.002100 -0.000000 1.000000
vn 0.001900 0.000000 1.000000
vn -0.045200 -0.000000 -0.999000
vn -0.074500 -0.000000 -0.997200
vn -0.074100 -0.000000 -0.997300
vn -0.046300 -0.000000 -0.998900
vn 0.037500 0.999300 -0.000000
vn 0.037600 0.999300 0.000000
vn 0.055300 0.998500 0.000000
vn 0.290400 0.000000 -0.956900
vn 0.303200 0.000000 -0.952900
vn 0.304300 -0.000000 -0.952600
vn 0.067100 -0.997700 0.000000
vn -0.109700 -0.994000 0.000000
vn 0.304300 -0.000000 0.952600
vn 0.303200 0.000000 0.952900
vn 0.290400 0.000000 0.956900
vn 0.035800 -0.999400 0.000000
vn 0.035900 -0.999400 0.000000
vn 0.026700 -0.999600 0.000000
vn 0.089600 -0.005300 -0.996000
vn 0.093400 -0.005800 -0.995600
vn 0.170600 -0.016300 -0.985200
vn -0.066800 0.997800 0.000000
vn -0.073500 0.997300 0.000000
vn -0.073400 0.997300 0.000000
vn 0.170600 -0.016300 0.985200
vn 0.074800 -0.005800 0.997200
vn 0.070200 -0.005300 0.997500
vn 0.029400 -0.999600 0.000000
vn 0.043800 -0.999000 0.000000
vn 0.043900 -0.999000 -0.000000
vn -0.031200 -0.000000 -0.999500
vn -0.030500 -0.000000 -0.999500
vn 0.041700 -0.000000 -0.999100
vn 0.040800 -0.000000 -0.999200
vn -0.074000 0.997300 -0.000000
vn -0.073900 0.997300 -0.000000
vn -0.028600 0.999600 0.000000
vn 0.016900 0.000000 0.999900
vn 0.017400 -0.000000 0.999800
vn -0.025400 0.000000 0.999700
vn -0.026000 -0.000000 0.999700
vn -0.151100 -0.988500 0.000000
vn -0.150100 -0.988700 0.000000
vn -0.004400 -1.000000 -0.000000
vn -0.004600 -1.000000 0.000000
vn -0.080500 0.000000 -0.996800
vn -0.080600 0.000000 -0.996700
vn -0.067300 0.000000 -0.997700
vn -0.067800 0.000000 -0.997700
vn -0.052200 0.998600 0.000000
vn -0.052100 0.998600 0.000000
vn -0.039300 0.999200 0.000000
vn -0.039100 0.999200 0.000000
vn -0.046500 0.000000 0.998900
vn -0.046400 -0.000000 0.998900
vn -0.070700 0.000000 0.997500
vn -0.069200 0.000000 0.997600
vn -0.354800 -0.934900 0.000000
vn -0.357700 -0.933800 -0.000000
vn -0.080700 -0.000000 -0.996700
vn -0.083900 -0.000000 -0.996500
vn 0.045300 0.999000 -0.000000
vn -0.127500 -0.000000 0.991800
vn -0.127600 -0.000000 0.991800
vn -0.364000 -0.931400 -0.000000
vn -0.365100 -0.931000 0.000000
vn -0.088200 0.000000 -0.996100
vn -0.089700 -0.000000 -0.996000
vn 0.010200 0.999900 0.000000
vn 0.009900 1.000000 -0.000000
vn -0.108800 -0.000000 0.994100
vn -0.103900 -0.000000 0.994600
vn 0.120500 -0.992700 0.000000
vn 0.120900 -0.992700 -0.000000
vn 0.087200 -0.996200 0.000000
vn 0.087300 -0.996200 0.000000
vn 0.101800 -0.000000 -0.994800
vn 0.100000 -0.000000 -0.995000
vn 0.022300 0.000000 -0.999800
vn 0.023000 -0.000000 -0.999700
vn 0.052200 0.998600 -0.000000
vn 0.044200 0.999000 0.000000
vn 0.044500 0.999000 0.000000
vn 0.018200 -0.000000 0.999800
vn 0.018100 0.000000 0.999800
vn 0.068200 0.000000 0.997700
vn 0.069800 0.000000 0.997600
vn 0.135400 -0.990800 0.000000
vn 0.113200 0.000000 -0.993600
vn 0.115200 0.000000 -0.993300
vn 0.040100 0.999200 0.000000
vn 0.082500 0.000000 0.996600
vn 0.080800 0.000000 0.996700
vn -0.021100 -0.999800 0.000000
vn -0.020700 -0.999800 0.000000
vn 0.071700 -0.997400 -0.000000
vn 0.071900 -0.997400 -0.000000
vn -0.051000 0.000000 -0.998700
vn -0.051300 0.000000 -0.998700
vn 0.008400 -0.000000 -1.000000
vn 0.007400 0.000000 -1.000000
vn 0.023300 0.999700 0.000200
vn 0.027800 0.999600 0.000100
vn 0.027900 0.999600 0.000100
vn -0.001500 -0.000000 1.000000
vn -0.000800 -0.000000 1.000000
vn -0.015000 0.000000 0.999900
vn -0.015200 0.000000 0.999900
vn -0.045100 -0.999000 -0.000000
vn -0.072700 -0.000000 -0.997400
vn -0.073900 -0.000000 -0.997300
vn 0.033200 0.999400 0.000100
vn 0.033300 0.999400 0.000100
vn -0.049500 -0.000000 0.998800
vn -0.046300 0.000000 0.998900
vn -0.182100 -0.983300 0.000000
vn -0.181400 -0.983400 -0.000000
vn -0.135400 -0.990800 -0.000000
vn -0.135800 -0.990700 0.000000
vn 0.182600 0.000000 -0.983200
vn 0.157100 0.000000 -0.987600
vn 0.153300 -0.000000 -0.988200
vn 0.042400 0.999100 0.000000
vn 0.034900 0.999400 -0.000000
vn 0.188200 -0.000000 0.982100
vn 0.200800 0.000000 0.979600
vn 0.282200 0.000000 0.959400
vn -0.290300 -0.956900 -0.000000
vn 0.025700 0.999700 -0.000000
vn -0.292800 -0.956200 0.000000
vn 0.000800 0.000000 -1.000000
vn -0.083200 0.000000 -0.996500
vn 0.027000 0.999600 0.000000
vn -0.083300 -0.000000 0.996500
vn 0.000800 0.000000 1.000000
vn 0.127800 -0.991800 -0.000000
vn 0.127900 -0.991800 -0.000000
vn 0.037500 -0.000000 -0.999300
vn 0.037800 -0.000000 -0.999300
vn 0.029300 0.999600 0.000100
vn 0.029200 0.999600 0.000100
vn 0.016100 -0.000000 0.999900
vn 0.015800 -0.000000 0.999900
vn -0.088700 -0.996100 0.000000
vn -0.089500 -0.996000 0.000000
vn -0.009800 -0.000000 -1.000000
vn -0.000500 -0.000000 -1.000000
vn 0.042300 0.999100 0.000100
vn -0.061800 -0.000000 0.998100
vn -0.069700 0.000000 0.997600
vn -0.452500 0.000000 -0.891700
vn -0.452500 0.000000 0.891700
vn 0.996400 0.000000 0.084200
vn 0.967800 0.000000 -0.251600
vn 0.967800 0.000000 -0.251800
vn -0.226100 -0.972300 -0.059400
vn -0.287500 -0.955800 0.060900
vn -0.253000 -0.967400 -0.007800
vn -0.986000 0.000000 -0.166500
vn -0.985100 -0.000000 0.172000
vn -0.984800 0.000000 0.173700
vn 0.030000 0.999000 -0.031800
vn 0.034500 0.998700 -0.036900
vn 0.040800 0.998200 -0.044100
vn -0.991500 0.000000 0.130100
vn -0.984800 -0.000000 -0.173600
vn -0.985100 0.000000 -0.171900
vn -0.229300 -0.972200 0.048200
vn -0.249800 -0.968300 0.009200
vn -0.288000 -0.955300 -0.066300
vn 0.998600 0.000000 -0.052200
vn 0.968000 0.000000 0.251000
vn 0.968000 -0.000000 0.250900
vn 0.030300 0.999100 0.028700
vn 0.041400 0.998100 0.044700
vn 0.033900 0.998900 0.033800
vn -0.834300 -0.000000 0.551300
vn -0.371100 -0.896300 0.242600
vn 0.801000 0.000000 -0.598700
vn 0.058500 0.996200 -0.064400
vn 0.065300 0.994700 0.079300
vn 0.763800 0.000000 0.645400
vn -0.389300 -0.874600 -0.288900
vn -0.800300 0.000000 -0.599600
usemtl initialShadingGroup.002
s off
f 1/1/1 2/2/1 3/3/1 4/4/1
f 9/5/2 10/6/2 11/7/2 12/8/2
f 83/9/3 84/10/3 85/11/3 86/12/3
f 89/13/4 90/14/4 91/15/4 92/16/4
s 1
f 5/17/5 6/18/5 7/19/6 8/20/7
f 13/21/8 14/22/9 15/23/10 16/24/11
f 6/25/12 15/26/13 14/27/14 7/28/15
f 13/29/16 16/30/17 5/31/18 8/32/19
f 17/33/20 18/34/21 10/6/22 9/5/22
f 12/35/23 19/36/24 17/37/25 9/38/23
f 12/8/26 11/7/26 20/39/27 19/40/27
f 18/41/28 20/42/29 11/43/30 10/44/30
f 21/45/31 22/46/32 2/47/33 1/48/33
f 23/49/34 21/50/35 1/1/36 4/4/36
f 4/4/37 3/3/37 24/51/38 23/52/39
f 2/2/40 22/53/41 24/54/42 3/3/40
f 25/55/43 26/56/43 27/57/44 28/58/45
f 29/59/46 25/60/47 28/61/48 30/62/49
f 30/63/50 31/64/51 32/65/52 29/66/52
f 31/67/53 27/68/54 26/69/55 32/70/56
f 28/58/45 27/57/44 22/46/32 21/45/31
f 30/62/49 28/61/48 21/50/35 23/49/34
f 23/52/39 24/51/38 31/64/51 30/63/50
f 24/54/42 22/53/41 27/68/54 31/67/53
f 33/71/57 34/72/58 35/73/59 36/74/60
f 37/75/61 33/76/62 36/77/63 38/78/64
f 38/79/65 39/80/66 40/81/67 37/82/68
f 39/83/69 35/84/70 34/85/71 40/86/72
f 16/24/11 15/23/10 41/87/73 42/88/74
f 5/31/18 16/30/17 42/89/75 43/90/76
f 43/91/77 44/92/77 6/18/5 5/17/5
f 44/93/78 41/94/79 15/26/13 6/25/12
f 45/95/80 46/96/81 34/72/58 33/71/57
f 47/97/82 45/98/83 33/76/62 37/75/61
f 37/82/68 40/81/67 48/99/84 47/100/85
f 40/86/72 34/85/71 46/101/86 48/102/87
f 42/88/74 41/87/73 46/96/81 45/95/80
f 43/90/76 42/89/75 45/98/83 47/97/82
f 47/100/85 48/99/84 44/92/77 43/91/77
f 48/102/87 46/101/86 41/94/79 44/93/78
f 49/103/88 50/104/89 51/105/90 52/106/91
f 53/107/92 49/108/93 52/109/94 54/110/95
f 54/111/96 55/112/96 56/113/97 53/114/98
f 55/115/99 51/116/100 50/117/101 56/118/102
f 52/106/91 51/105/90 14/22/9 13/21/8
f 54/110/95 52/109/94 13/29/16 8/32/19
f 8/20/7 7/19/6 55/112/96 54/111/96
f 7/28/15 14/27/14 51/116/100 55/115/99
f 57/119/103 58/120/103 50/104/89 49/103/88
f 59/121/104 57/122/105 49/108/93 53/107/92
f 53/114/98 56/113/97 60/123/106 59/124/106
f 56/118/102 50/117/101 58/125/107 60/126/108
f 61/127/109 62/128/110 63/129/111 64/130/112
f 65/131/113 61/132/114 64/133/115 66/134/116
f 66/135/117 67/136/117 68/137/118 65/138/119
f 67/139/120 63/140/121 62/141/122 68/142/123
f 69/143/124 70/144/124 62/128/110 61/127/109
f 71/145/125 69/146/126 61/132/114 65/131/113
f 65/138/119 68/137/118 72/147/127 71/148/128
f 68/142/123 62/141/122 70/149/129 72/150/130
f 73/151/131 74/152/132 75/153/133 76/154/134
f 77/12/135 73/11/135 76/155/136 78/156/137
f 78/157/138 79/158/138 80/159/139 77/160/139
f 79/161/140 75/162/141 74/14/142 80/13/142
f 81/163/143 82/164/143 74/152/132 73/151/131
f 77/160/139 80/159/139 87/165/144 88/166/144
f 19/40/27 20/39/27 93/167/145 94/168/145
f 17/37/25 19/36/24 94/169/146 95/170/147
f 95/171/148 96/172/148 18/34/21 17/33/20
f 96/173/149 93/174/150 20/42/29 18/41/28
f 64/130/112 63/129/111 97/175/151 98/176/152
f 66/134/116 64/133/115 98/177/153 99/178/154
f 99/179/155 100/180/156 67/136/117 66/135/117
f 100/181/157 97/182/158 63/140/121 67/139/120
f 101/183/159 102/184/160 70/144/124 69/143/124
f 103/185/161 101/186/162 69/146/126 71/145/125
f 71/148/128 72/147/127 104/187/163 103/188/163
f 72/150/130 70/149/129 102/189/164 104/190/165
f 94/168/145 93/167/145 82/164/143 81/163/143
f 95/170/147 94/169/146 81/10/166 88/9/166
f 88/166/144 87/165/144 96/172/148 95/171/148
f 87/16/167 82/15/167 93/174/150 96/173/149
f 76/154/134 75/153/133 102/184/160 101/183/159
f 78/156/137 76/155/136 101/186/162 103/185/161
f 103/188/163 104/187/163 79/158/138 78/157/138
f 104/190/165 102/189/164 75/162/141 79/161/140
f 99/178/154 98/177/153 57/122/105 59/121/104
f 98/176/152 97/175/151 58/120/103 57/119/103
f 60/126/108 58/125/107 97/182/158 100/181/157
f 59/124/106 60/123/106 100/180/156 99/179/155
f 38/78/64 36/77/63 25/60/47 29/59/46
f 36/74/60 35/73/59 26/56/43 25/55/43
f 32/70/56 26/69/55 35/84/70 39/83/69
f 29/66/52 32/65/52 39/80/66 38/79/65
f 88/9/168 81/10/168 105/10/169 106/9/170
f 81/10/171 73/11/171 107/11/172 105/10/173
f 73/11/174 77/12/174 108/12/175 107/11/176
f 77/12/177 88/9/177 106/9/178 108/12/179
f 80/13/180 74/14/180 109/14/181 110/13/182
f 74/14/183 82/15/183 111/15/184 109/14/185
f 82/15/186 87/16/186 112/16/187 111/15/188
f 87/16/189 80/13/189 110/13/190 112/16/191
f 107/11/176 108/12/175 86/12/192 85/11/192
f 105/10/173 107/11/172 85/11/193 84/10/193
f 106/9/170 105/10/169 84/10/194 83/9/194
f 108/12/179 106/9/178 83/9/195 86/12/195
f 112/16/191 110/13/190 89/13/196 92/16/196
f 111/15/188 112/16/187 92/16/197 91/15/197
f 109/14/185 111/15/184 91/15/198 90/14/198
f 110/13/182 109/14/181 90/14/199 89/13/199
